<svg xmlns="http://www.w3.org/2000/svg" version="1.1" viewBox="0 0 300 88"><rect fill="#AD7070" width="300" height="88" x="0" y="0" rx="10"/><g fill="#FFF" fill-rule="nonzero" transform="translate(91 7)"><path d="M12.437 8.41 25.33 46.87 38.445 8.19c.667-2.001 1.112-3.335 1.557-4.224.444-.89.889-1.556 1.778-2.223.89-.667 1.778-.89 3.112-.89.89 0 2 .223 2.668.668.667.444 1.556 1.111 2 2 .445.89.89 1.556.89 2.446 0 .666 0 1.111-.223 1.778l-.667 2-.666 2.001L35.11 49.091c-.445 1.334-.89 2.89-1.556 4.002-.667 1.111-1.112 2.445-1.778 3.334-.667.89-1.557 1.779-2.668 2.446-1.112.667-2.445.889-4.001.889-1.557 0-2.89-.222-4.002-.89-1.111-.666-2-1.333-2.667-2.445-.667-1.111-1.334-2.223-1.779-3.334-.444-1.112-.889-2.668-1.556-4.002L1.766 11.968 1.1 9.967l-.667-2C.21 7.298.21 6.41.21 5.965c0-1.334.445-2.446 1.556-3.557C2.878 1.297 4.212.853 5.768.853c2 0 3.334.667 4.223 1.778.89 1.112 1.779 3.112 2.446 5.78Zm34.678 51.352-.89-.445c-2.444-.889-3.556-3.557-2.667-6.002l19.34-50.24C63.788.63 66.455-.48 68.9.409l.89.445c2.445.889 3.556 3.556 2.667 6.002l-19.34 50.24c-1.111 2.222-3.779 3.556-6.002 2.667Zm58.91-7.336-2.668-7.114H80.015l-2.89 7.336c-1.111 2.89-2 4.89-2.667 5.78-.667.89-2 1.556-3.78 1.556-1.555 0-2.667-.444-3.778-1.556-1.112-1.111-1.779-2.223-1.779-3.557 0-.889.223-1.556.445-2.445.222-.89.667-2 1.334-3.557l14.67-37.346c.445-1.111.89-2.445 1.556-3.779.667-1.334 1.112-2.668 1.779-3.78.667-1.11 1.556-1.777 2.667-2.444C88.685.853 90.02.63 91.575.63c1.556 0 2.89.223 4.001.89 1.112.667 2 1.333 2.668 2.445.667 1.111 1.334 2 1.778 3.112.445 1.112 1.112 2.668 1.779 4.446l14.671 36.902c1.112 2.89 1.779 4.89 1.779 6.224 0 1.334-.445 2.445-1.556 3.557-1.112 1.111-2.446 1.556-4.002 1.556-.889 0-1.778-.222-2.445-.445-.667-.222-1.112-.667-1.556-1.334-.445-.666-.89-1.333-1.334-2.667-.445-1.334-1.111-2-1.334-2.89Zm-23.12-15.783h17.117l-8.67-23.786-8.447 23.786Z"/><circle cx="26.441" cy="69.765" r="4.224"/><path d="M76.236 72.877H41.558c-1.334 0-2.223-.889-2.223-2.223v-1.556c0-1.333.889-2.223 2.223-2.223h34.678c1.334 0 2.223.89 2.223 2.223v1.556c0 1.112-.889 2.223-2.223 2.223Z"/><circle cx="91.353" cy="69.765" r="4.224"/></g></svg>