<svg xmlns="http://www.w3.org/2000/svg" version="1.1" viewBox="0 0 256 256"><defs><linearGradient id="a" x1="0%" x2="0%" y1="0%" y2="100%"><stop offset="0%" stop-color="#81b4e0"/><stop offset="100%" stop-color="#0c5a94"/></linearGradient><linearGradient id="b" x1="128" x2="128" y1="16" y2="107" gradientUnits="userSpaceOnUse"><stop offset="0%" stop-color="#f06b59"/><stop offset="100%" stop-color="#df2227"/></linearGradient><linearGradient id="c" x1="72" x2="118" y1="225" y2="149" gradientUnits="userSpaceOnUse"><stop offset="0%" stop-color="#388b41"/><stop offset="100%" stop-color="#4cb749"/></linearGradient><linearGradient id="d" x1="187" x2="138" y1="220" y2="102" gradientUnits="userSpaceOnUse"><stop offset="0%" stop-color="#e4b022"/><stop offset="30%" stop-color="#fcd209"/></linearGradient><linearGradient id="e" x1="80" x2="80" y1="140" y2="60" gradientUnits="userSpaceOnUse"><stop offset="0%" stop-color="#000" stop-opacity=".15"/><stop offset="30%" stop-color="#000" stop-opacity=".06"/><stop offset="100%" stop-color="#000" stop-opacity=".03"/></linearGradient><linearGradient id="f" x1="164" x2="109" y1="161" y2="217" gradientUnits="userSpaceOnUse"><stop offset="0%" stop-color="#000" stop-opacity=".15"/><stop offset="30%" stop-color="#000" stop-opacity=".06"/><stop offset="100%" stop-color="#000" stop-opacity=".03"/></linearGradient><linearGradient id="g" x1="139" x2="147" y1="179" y2="100" gradientUnits="userSpaceOnUse"><stop offset="0%" stop-color="#000" stop-opacity=".15"/><stop offset="30%" stop-color="#000" stop-opacity=".06"/><stop offset="100%" stop-color="#000" stop-opacity=".03"/></linearGradient></defs><circle fill="#fff" cx="128" cy="128" r="110"/><path d="M198 148a70 70 0 0 0-140 0h20a50 50 0 0 1 100 0" fill="#000" fill-opacity=".1"/><circle fill="#000" fill-opacity=".1" cx="133" cy="142" r="38"/><circle fill="url(#a)" cx="50%" cy="50%" r="41"/><path d="M228 78A112 112 0 0 0 35 65l45 78a50 50 0 0 1 47-65" fill="url(#b)"/><path d="M35 65a112 112 0 0 0 84 174l47-80a50 50 0 0 1-86-16" fill="url(#c)"/><path d="M119 239A112 112 0 0 0 228 78H127a50 50 0 0 1 39 81" fill="url(#d)"/><path d="m35 65 45 78a50 50 0 0 1 2-34L37 62" fill="url(#e)"/><path d="m119 239 47-80a50 50 0 0 1-29 17l-20 63" fill="url(#f)"/><path d="M228 78H127a50 50 0 0 1 39 19l64-16" fill="url(#g)"/></svg>