<svg xmlns="http://www.w3.org/2000/svg" version="1.1" viewBox="0 0 300 88"><defs><linearGradient id="a" x1="75.805%" x2="16.71%" y1="116.269%" y2="-3.322%"><stop offset="18%" stop-color="#03045E"/><stop offset="48%" stop-color="#0077B6"/><stop offset="85%" stop-color="#B3E6FF"/></linearGradient></defs><g fill="none" fill-rule="evenodd" stroke="none" stroke-width="1"><rect fill="#023E8A" width="300" height="88" x="0" y="0" rx="10"/><g fill-rule="nonzero"><path d="m151.192 65.355 9.875-37.507h-8.488l-4.43 19.076-2.242 10.8h-.427l-2.189-10.8-4.377-19.076H130l9.875 37.507h11.317Zm28.077-31.274c1.78 0 3.016-.367 3.71-1.101.694-.735 1.04-1.621 1.04-2.66v-1.56c0-1.074-.346-1.97-1.04-2.686-.694-.717-1.93-1.075-3.71-1.075s-3.016.358-3.71 1.075c-.694.716-1.04 1.612-1.04 2.686v1.559c0 1.039.346 1.925 1.04 2.66.694.734 1.93 1.101 3.71 1.101Zm12.064 31.274v-6.18h-8.114V37.629h-16.654v6.18h8.754v15.368h-8.754v6.18h24.768ZM205.21 66c2.136 0 3.942-.466 5.418-1.397 1.477-.932 2.465-2.31 2.963-4.138h.267c.178 1.577.765 2.786 1.761 3.627.997.842 2.313 1.263 3.95 1.263h4.538v-5.75h-3.043V47.462c0-3.51-1.059-6.134-3.176-7.872-2.117-1.737-5.062-2.606-8.834-2.606-3.096 0-5.632.51-7.607 1.531-1.975 1.021-3.425 2.32-4.35 3.896l4.323 3.87a9.428 9.428 0 0 1 2.67-2.526c1.031-.645 2.384-.968 4.056-.968 1.815 0 3.105.421 3.87 1.263.765.842 1.148 2.087 1.148 3.735v1.397h-4.43c-4.057 0-7.136.698-9.235 2.096-2.1 1.397-3.15 3.546-3.15 6.448 0 2.615.81 4.648 2.43 6.099 1.618 1.45 3.762 2.176 6.431 2.176Zm2.99-5.212c-1.246 0-2.242-.251-2.99-.753-.747-.501-1.12-1.236-1.12-2.203v-1.074c0-2.186 1.619-3.278 4.857-3.278h4.217v3.331c0 1.29-.48 2.275-1.441 2.956-.961.68-2.136 1.02-3.523 1.02Zm45.8 4.567v-6.18h-8.434V25.592h-16.334v6.18h8.434v27.405h-8.434v6.18H254Z" fill="#FFF"/><path d="m56.147 53.362-6.81-9.375L38.081 28.44V3.173h4.963V0h-28.02v3.173h4.963v25.296L8.732 44.016 1.75 53.362a9.025 9.025 0 0 0 1.96 12.633 9.151 9.151 0 0 0 5.339 1.731h39.796c4.987-.016 9.03-4.044 9.061-9.028a8.65 8.65 0 0 0-1.76-5.336Z" fill="url(#a)" transform="translate(46 10)"/><path d="M.104 58.669c.031 4.989 4.07 9.026 9.061 9.057h11.313a34.773 34.773 0 0 1-3.925-13.99c0-6.864 4.964-12.95 8.658-16.556a12.63 12.63 0 0 0 3.838-9.086V0H15.024v3.173h4.963V28.44L1.75 53.333a9.025 9.025 0 0 0-1.645 5.336Z" fill="#FFF" opacity=".3" style="mix-blend-mode:overlay" transform="translate(46 10)"/><path d="M57.907 58.698c-.031 4.984-4.074 9.012-9.061 9.028H9.166a9.151 9.151 0 0 1-5.34-1.73A9.028 9.028 0 0 1 1.75 53.361l6.781-9.375s7.85 6.577 20.375 0c11.947-6.345 19.652-.519 20.2 0l6.811 9.375a8.65 8.65 0 0 1 1.991 5.336Z" fill="#FFF" opacity=".3" style="mix-blend-mode:overlay" transform="translate(46 10)"/></g></g></svg>