<?xml version="1.0" encoding="UTF-8"?>
<svg viewBox="0 0 300 88" version="1.1" xmlns="http://www.w3.org/2000/svg" xmlns:xlink="http://www.w3.org/1999/xlink">
  <defs>
    <linearGradient x1="75.8053851%" y1="116.269165%" x2="16.710088%" y2="-3.32197615%" id="linearGradient-1">
      <stop stop-color="#03045E" offset="18%"></stop>
      <stop stop-color="#0077B6" offset="48%"></stop>
      <stop stop-color="#B3E6FF" offset="85%"></stop>
    </linearGradient>
  </defs>
  <g id="Page-1" stroke="none" stroke-width="1" fill="none" fill-rule="evenodd">
    <g id="Logo">
      <rect id="Rectangle" fill="#023E8A" x="0" y="0" width="300" height="88" rx="10"></rect>
      <g id="Brand" transform="translate(46.000000, 10.000000)" fill-rule="nonzero">
        <path d="M105.191563,55.3551769 L115.066724,17.8479685 L106.579423,17.8479685 L102.148945,36.9239843 L99.9070168,47.7247706 L99.4799828,47.7247706 L97.2914335,36.9239843 L92.9143349,17.8479685 L84,17.8479685 L93.8751614,55.3551769 L105.191563,55.3551769 Z M133.269049,24.0812582 C135.048357,24.0812582 136.284976,23.7140673 136.978907,22.9796855 C137.672837,22.2453036 138.019802,21.3586719 138.019802,20.3197903 L138.019802,20.3197903 L138.019802,18.7614679 C138.019802,17.6867628 137.672837,16.7911752 136.978907,16.0747051 C136.284976,15.358235 135.048357,15 133.269049,15 C131.48974,15 130.253121,15.358235 129.559191,16.0747051 C128.86526,16.7911752 128.518295,17.6867628 128.518295,18.7614679 L128.518295,18.7614679 L128.518295,20.3197903 C128.518295,21.3586719 128.86526,22.2453036 129.559191,22.9796855 C130.253121,23.7140673 131.48974,24.0812582 133.269049,24.0812582 Z M145.332759,55.3551769 L145.332759,49.1756225 L137.219113,49.1756225 L137.219113,27.6277851 L120.564787,27.6277851 L120.564787,33.8073394 L129.318984,33.8073394 L129.318984,49.1756225 L120.564787,49.1756225 L120.564787,55.3551769 L145.332759,55.3551769 Z M159.211365,56 C161.346535,56 163.152533,55.5342945 164.629359,54.6028834 C166.106185,53.6714723 167.093701,52.2922674 167.591907,50.4652687 L167.591907,50.4652687 L167.858803,50.4652687 C168.036734,52.0415028 168.623906,53.2505461 169.620319,54.0923984 C170.616731,54.9342508 171.933419,55.3551769 173.570383,55.3551769 L173.570383,55.3551769 L178.107619,55.3551769 L178.107619,49.6055046 L175.065002,49.6055046 L175.065002,37.4613368 C175.065002,33.9506335 174.006314,31.3265618 171.888937,29.5891219 C169.77156,27.851682 166.826804,26.982962 163.054671,26.982962 C159.958674,26.982962 157.42316,27.4934469 155.448127,28.5144168 C153.473095,29.5353866 152.022959,30.8339886 151.097718,32.4102228 L151.097718,32.4102228 L155.421438,36.2791612 C156.168747,35.2402796 157.058401,34.3984273 158.0904,33.7536042 C159.122399,33.1087811 160.474674,32.7863696 162.147223,32.7863696 C163.962118,32.7863696 165.252117,33.2072958 166.017219,34.0491481 C166.782322,34.8910004 167.164873,36.1358672 167.164873,37.7837484 L167.164873,37.7837484 L167.164873,39.180865 L162.734395,39.180865 C158.677572,39.180865 155.599369,39.8794233 153.499785,41.27654 C151.400201,42.6736566 150.350409,44.8230668 150.350409,47.7247706 C150.350409,50.3398864 151.159994,52.3728702 152.779165,53.8237221 C154.398335,55.274574 156.542402,56 159.211365,56 Z M162.200603,50.7876802 C160.955087,50.7876802 159.958674,50.5369157 159.211365,50.0353866 C158.464055,49.5338576 158.0904,48.7994758 158.0904,47.8322412 L158.0904,47.8322412 L158.0904,46.757536 C158.0904,44.5723023 159.709571,43.4796855 162.947912,43.4796855 L162.947912,43.4796855 L167.164873,43.4796855 L167.164873,46.8112713 C167.164873,48.1009174 166.68446,49.0860638 165.723633,49.7667104 C164.762807,50.4473569 163.588463,50.7876802 162.200603,50.7876802 Z M208,55.3551769 L208,49.1756225 L199.566078,49.1756225 L199.566078,15.5910878 L183.232028,15.5910878 L183.232028,21.7706422 L191.665949,21.7706422 L191.665949,49.1756225 L183.232028,49.1756225 L183.232028,55.3551769 L208,55.3551769 Z" id="Text" fill="#FFFFFF"></path>
        <g id="Vial">
          <g id="Group" fill="url(#linearGradient-1)">
            <path d="M56.1469642,53.3616119 L49.3363496,43.9872747 L49.3363496,43.9872747 L38.0815203,28.4402969 L38.0815203,3.1728526 L43.0451886,3.1728526 L43.0451886,-5.25183761e-15 L15.0235496,-5.25183761e-15 L15.0235496,3.1728526 L19.9872179,3.1728526 L19.9872179,28.469141 L8.73238859,44.0161188 L8.73238859,44.0161188 L1.74862274,53.3616119 C0.329470722,55.2959321 -0.261203796,57.7152034 0.106966694,60.0854693 C0.475137184,62.4557353 1.77188418,64.5821286 3.71100323,65.995334 C5.26522558,67.1170868 7.13275592,67.7224696 9.0498325,67.7259809 L48.8457544,67.7259809 C53.8325526,67.7102579 57.8756974,63.6820036 57.9073349,58.6977731 C57.930737,56.7728561 57.3112754,54.8951001 56.1469642,53.3616119 L56.1469642,53.3616119 Z" id="Path"></path>
          </g>
          <path d="M0.103686156,58.668929 C0.135179017,63.6579042 4.1737969,67.6945038 9.16526664,67.7259809 L20.477813,67.7259809 C18.1989752,63.3909456 16.8615545,58.6238509 16.553052,53.7365854 C16.553052,46.8716861 21.5167203,40.7855779 25.210613,37.1800636 C27.6687661,34.7962619 29.0538393,31.5174648 29.0488121,28.0941676 L29.0488121,0 L15.0235496,0 L15.0235496,3.1728526 L19.9872179,3.1728526 L19.9872179,28.4402969 L1.74862274,53.3327678 C0.649939877,54.8930701 0.0740770636,56.7611645 0.103686156,58.668929 Z" id="Path" fill="#FFFFFF" opacity="0.3" style="mix-blend-mode: overlay;"></path>
          <path d="M57.9073349,58.6977731 C57.8756974,63.6820036 53.8325526,67.7102579 48.8457544,67.7259809 L9.16526664,67.7259809 C7.24819007,67.7224696 5.38065973,67.1170868 3.82643738,65.995334 C1.86916884,64.5996355 0.549387559,62.4815878 0.159388677,60.1102803 C-0.230610205,57.7389727 0.341359665,55.3101077 1.74862274,53.3616119 L8.53037884,43.9872747 C8.53037884,43.9872747 16.3799008,50.5637328 28.9045057,43.9872747 C40.8519398,37.6415695 48.5571691,43.4680806 49.1054813,43.9872747 L49.1054813,43.9872747 L55.9160959,53.3616119 C57.1632408,54.8648059 57.8650158,56.7454362 57.9073349,58.6977731 L57.9073349,58.6977731 Z" id="Path" fill="#FFFFFF" opacity="0.3" style="mix-blend-mode: overlay;"></path>
        </g>
      </g>
    </g>
  </g>
</svg>
