<?xml version="1.0" encoding="UTF-8"?>
<svg viewBox="0 0 300 88" version="1.1" xmlns="http://www.w3.org/2000/svg" xmlns:xlink="http://www.w3.org/1999/xlink">
    <defs>
        <linearGradient x1="75.7795991%" y1="116.269165%" x2="16.743353%" y2="-3.32197615%" id="linearGradient-1">
            <stop stop-color="#03045E" offset="18%"></stop>
            <stop stop-color="#0077B6" offset="48%"></stop>
            <stop stop-color="#B3E6FF" offset="85%"></stop>
        </linearGradient>
    </defs>
    <g id="Page-1" stroke="none" stroke-width="1" fill="none" fill-rule="evenodd">
        <g id="Logo">
            <rect id="Rectangle" fill="#023E8A" x="0" y="0" width="300" height="88" rx="10"></rect>
            <path d="M150.188545,58.5853659 L156.848545,33.4573659 L151.124545,33.4573659 L148.136545,46.2373659 L146.624545,53.4733659 L146.336545,53.4733659 L144.860545,46.2373659 L141.908545,33.4573659 L135.896545,33.4573659 L142.556545,58.5853659 L150.188545,58.5853659 Z M169.124545,37.6333659 C170.324545,37.6333659 171.158545,37.3873659 171.626545,36.8953659 C172.094545,36.4033659 172.328545,35.8093659 172.328545,35.1133659 L172.328545,35.1133659 L172.328545,34.0693659 C172.328545,33.3493659 172.094545,32.7493659 171.626545,32.2693659 C171.158545,31.7893659 170.324545,31.5493659 169.124545,31.5493659 C167.924545,31.5493659 167.090545,31.7893659 166.622545,32.2693659 C166.154545,32.7493659 165.920545,33.3493659 165.920545,34.0693659 L165.920545,34.0693659 L165.920545,35.1133659 C165.920545,35.8093659 166.154545,36.4033659 166.622545,36.8953659 C167.090545,37.3873659 167.924545,37.6333659 169.124545,37.6333659 Z M177.260545,58.5853659 L177.260545,54.4453659 L171.788545,54.4453659 L171.788545,40.0093659 L160.556545,40.0093659 L160.556545,44.1493659 L166.460545,44.1493659 L166.460545,54.4453659 L160.556545,54.4453659 L160.556545,58.5853659 L177.260545,58.5853659 Z M186.620545,59.0173659 C188.060545,59.0173659 189.278545,58.7053659 190.274545,58.0813659 C191.270545,57.4573659 191.936545,56.5333659 192.272545,55.3093659 L192.272545,55.3093659 L192.452545,55.3093659 C192.572545,56.3653659 192.968545,57.1753659 193.640545,57.7393659 C194.312545,58.3033659 195.200545,58.5853659 196.304545,58.5853659 L196.304545,58.5853659 L199.364545,58.5853659 L199.364545,54.7333659 L197.312545,54.7333659 L197.312545,46.5973659 C197.312545,44.2453659 196.598545,42.4873659 195.170545,41.3233659 C193.742545,40.1593659 191.756545,39.5773659 189.212545,39.5773659 C187.124545,39.5773659 185.414545,39.9193659 184.082545,40.6033659 C182.750545,41.2873659 181.772545,42.1573659 181.148545,43.2133659 L181.148545,43.2133659 L184.064545,45.8053659 C184.568545,45.1093659 185.168545,44.5453659 185.864545,44.1133659 C186.560545,43.6813659 187.472545,43.4653659 188.600545,43.4653659 C189.824545,43.4653659 190.694545,43.7473659 191.210545,44.3113659 C191.726545,44.8753659 191.984545,45.7093659 191.984545,46.8133659 L191.984545,46.8133659 L191.984545,47.7493659 L188.996545,47.7493659 C186.260545,47.7493659 184.184545,48.2173659 182.768545,49.1533659 C181.352545,50.0893659 180.644545,51.5293659 180.644545,53.4733659 C180.644545,55.2253659 181.190545,56.5873659 182.282545,57.5593659 C183.374545,58.5313659 184.820545,59.0173659 186.620545,59.0173659 Z M188.636545,55.5253659 C187.796545,55.5253659 187.124545,55.3573659 186.620545,55.0213659 C186.116545,54.6853659 185.864545,54.1933659 185.864545,53.5453659 L185.864545,53.5453659 L185.864545,52.8253659 C185.864545,51.3613659 186.956545,50.6293659 189.140545,50.6293659 L189.140545,50.6293659 L191.984545,50.6293659 L191.984545,52.8613659 C191.984545,53.7253659 191.660545,54.3853659 191.012545,54.8413659 C190.364545,55.2973659 189.572545,55.5253659 188.636545,55.5253659 Z M219.524545,58.5853659 L219.524545,54.4453659 L213.836545,54.4453659 L213.836545,31.9453659 L202.820545,31.9453659 L202.820545,36.0853659 L208.508545,36.0853659 L208.508545,54.4453659 L202.820545,54.4453659 L202.820545,58.5853659 L219.524545,58.5853659 Z" id="Text" fill="#FFFFFF" fill-rule="nonzero"></path>
            <g id="Vial" transform="translate(80.000000, 21.000000)" fill-rule="nonzero">
                <g id="Group" fill="url(#linearGradient-1)">
                    <path d="M37.9627885,36.097561 L33.3579105,29.7560976 L33.3579105,29.7560976 L25.7481544,19.2390244 L25.7481544,2.14634146 L29.1042519,2.14634146 L29.1042519,-3.55271368e-15 L10.1579105,-3.55271368e-15 L10.1579105,2.14634146 L13.514008,2.14634146 L13.514008,19.2585366 L5.90425192,29.7756098 L5.90425192,29.7756098 L1.1823007,36.097561 C0.22276587,37.4060717 -0.176608382,39.0426376 0.0723236606,40.6460528 C0.321255703,42.249468 1.19802852,43.6879106 2.50912997,44.6439024 C3.55999025,45.4027352 4.82268825,45.8122588 6.11888607,45.8146341 L33.0262031,45.8146341 C36.3979396,45.803998 39.1316412,43.0790024 39.1530324,39.7073171 C39.1688553,38.4051674 38.7500172,37.1349207 37.9627885,36.097561 L37.9627885,36.097561 Z" id="Path"></path>
                </g>
                <path d="M0.0701055819,39.6878049 C0.0913989293,43.0626999 2.82203982,45.7933408 6.19693485,45.8146341 L13.8457153,45.8146341 C12.304919,42.8821103 11.4006454,39.6573109 11.1920568,36.3512195 C11.1920568,31.7073171 14.5481544,27.5902439 17.0457153,25.1512195 C18.7077526,23.5386477 19.6442456,21.320638 19.6408466,19.004878 L19.6408466,0 L10.1579105,0 L10.1579105,2.14634146 L13.514008,2.14634146 L13.514008,19.2390244 L1.1823007,36.0780488 C0.439445488,37.1335474 0.0500859118,38.3972583 0.0701055819,39.6878049 Z" id="Path" fill="#FFFFFF" opacity="0.3" style="mix-blend-mode: overlay;"></path>
                <path d="M39.1530324,39.7073171 C39.1316412,43.0790024 36.3979396,45.803998 33.0262031,45.8146341 L6.19693485,45.8146341 C4.90073703,45.8122588 3.63803903,45.4027352 2.58717875,44.6439024 C1.26380584,43.6997534 0.371458796,42.2669565 0.107767868,40.6628367 C-0.15592306,39.0587169 0.230804371,37.4156611 1.1823007,36.097561 L5.76766656,29.7560976 C5.76766656,29.7560976 11.0749836,34.204878 19.5432763,29.7560976 C27.6213251,25.4634146 32.8310812,29.404878 33.2018129,29.7560976 L33.2018129,29.7560976 L37.8066909,36.097561 C38.6499261,37.1144275 39.124419,38.3866186 39.1530324,39.7073171 L39.1530324,39.7073171 Z" id="Path" fill="#FFFFFF" opacity="0.3" style="mix-blend-mode: overlay;"></path>
            </g>
        </g>
    </g>
</svg>
