<svg xmlns="http://www.w3.org/2000/svg" version="1.1" viewBox="0 0 1280 372"><g fill="#31a4d4"><path d="m1184.877 278.795-47.656-.126-6.744-16.318zm-177.91-.126 9.332-26.927h38.502l9.778 26.798zm-72.565 0h-18.179l19.393-4.384m-122.62 4.369h-80c21.56-3.29 37.192-7.475 46.898-12.554 9.705-5.078 20.697-14.823 32.973-29.236l.13 41.79Z"/><path d="m733.715 278.7-166.795-.753c23.955-4.805 40.6-10.32 49.933-16.542 9.334-6.223 19.66-18.69 30.98-37.404 12.757 19.775 24.214 32.897 34.37 39.366 10.157 6.47 27.328 11.58 51.512 15.334Z"/></g><path d="M1185.847 93.933c53.148 0 93.715 40.054 93.715 92.431 0 52.377-40.567 92.43-93.715 92.43-53.147 0-93.714-40.053-93.714-92.43 0-52.377 40.567-92.43 93.714-92.43Zm.282 16.282c-44.073 0-77.714 33.215-77.714 76.65s33.64 76.65 77.714 76.65 77.714-33.215 77.714-76.65-33.64-76.65-77.714-76.65Zm0 45.777c17.46 0 30.873 13.414 30.873 30.873 0 17.46-13.414 30.873-30.873 30.873-17.459 0-30.873-13.414-30.873-30.873 0-17.46 13.414-30.873 30.873-30.873Z" fill="#31a4d4"/><path d="m1062.732 98.943 75.742 179.726h-74.457l-9.633-25.932h-37.928l-9.037 25.932h-74.347l75.742-179.726h53.918Zm-8.689 15.03h-36.54l-63.114 151.645h45.07l8.832-24.109h52.866l9.76 24.109h45.873l-62.747-151.645Zm-18.27 56.36 10.02 27.553h-20.04l10.02-27.553Z" fill="#31a4d4"/><path d="M903.759 98.943c38 0 61.735 21.663 61.735 51.703 0 18.743-2.004 21.805-11.47 35.147 10.686 11.221 11.47 11.207 11.47 39.888 0 30.543-15.777 52.988-54.29 52.988h-99.619V98.943Zm-1.912 15.03h-73.98v149.04h79.956l.922-.004c30.236-.297 42.38-15.263 42.38-40.347 0-18.524-2.911-30.762-18.367-36.724 11.128-6.174 16.818-17.513 16.818-33.056 0-24.91-17.23-38.91-47.729-38.91Zm-5.513 88.923c7.73 0 11.69 5.978 11.69 15.656s-3.96 15.655-11.69 15.655h-23.379v-31.31Zm-1.461-62.622c8.998 0 13.15 5.636 13.15 15.656s-4.152 15.655-13.15 15.655h-21.918v-31.311Z" fill="#31a4d4"/><path d="M733.714 93.933c53.148 0 93.715 40.054 93.715 92.431 0 52.377-40.567 92.43-93.715 92.43-53.147 0-93.714-40.053-93.714-92.43 0-52.377 40.567-92.43 93.714-92.43Zm.282 16.282c-44.073 0-77.714 33.215-77.714 76.65s33.64 76.65 77.714 76.65 77.714-33.215 77.714-76.65-33.64-76.65-77.714-76.65Zm0 45.777c17.46 0 30.873 13.414 30.873 30.873 0 17.46-13.414 30.873-30.873 30.873-17.459 0-30.873-13.414-30.873-30.873 0-17.46 13.414-30.873 30.873-30.873Z" fill="#31a4d4"/><path d="M561.096 97.69c55.859 0 93.933 38.648 93.933 90.177 0 51.53-38.074 90.176-93.933 90.176h-78.904V97.691Zm-.564 16.283h-67.068v149.04h67.068l1.42-.009c46.705-.63 78.424-32.354 78.424-74.51 0-42.584-32.363-74.521-79.844-74.521Zm0 43.647c19.589 0 33.002 13.201 33.002 30.873s-13.2 30.873-33.002 30.873h-20.227V157.62Z" fill="#31a4d4"/><path d="M483.147 97.69v180.353H408V97.691h75.147Zm-13.251 16.34h-48.12v149.56h48.12V114.03ZM162.068.725c-11.517.98-20.968 5.018-41.171 17.593-6.083 3.785-6.138 3.48 1.407 7.874 12.392 7.218 35.652 20.883 38.345 22.527 2.215 1.352 3.49 1.652 4.877 1.147 2.745-.999 51.172-29.688 51.147-30.301-.04-1.012-20.547-12.688-26.196-14.916-5.071-2-18.256-4.949-20.681-4.625-.495.065-3.972.382-7.728.7m75.327 40.51-11.24 6.535c-1.546.9-5.52 3.164-8.832 5.033-7.652 4.318-43.21 24.952-71.858 41.7-5.299 3.098-18.125 10.513-28.502 16.48-10.377 5.966-20.313 11.74-22.079 12.832-1.766 1.092-6.914 4.14-11.441 6.777l-8.23 4.792-.036 4.204c-.02 2.312-.033 45.327-.03 95.587.01 90.574.025 91.396 1.625 92.705.889.727 11.578 7.068 23.755 14.09 12.178 7.023 23.477 13.576 25.11 14.561 8.605 5.195 21.293 11.533 26.251 13.113 7.135 2.273 20.774 3.036 28.819 1.611 10.47-1.853 13.388-3.3 51.469-25.538 4.857-2.836 9.373-5.5 10.036-5.92.662-.42 6.804-3.948 13.649-7.84 56.58-32.182 63.199-36.537 70.366-46.3 4.46-6.076 8.506-14.561 10.442-21.9 1.394-5.284 1.487-10.123 1.487-77.695 0-81.579.424-75.828-6.664-90.153-3.077-6.218-5.034-8.903-10.598-14.532-5.772-5.838-8.683-7.97-18.868-13.82a3293.108 3293.108 0 0 1-19.269-11.15c-22.764-13.336-34.825-20.1-35.814-20.086-.615.009-4.912 2.22-9.548 4.915M67.778 49.807C36.612 67.49 26.586 73.46 22.125 77 13.34 83.97 5.1 97.033 1.493 109.707.094 114.62 0 119.487 0 186.755v71.804l1.878 6.454c2.862 9.832 7.76 18.357 14.762 25.695 6.623 6.94 11.268 10.346 22.008 16.132l6.991 3.767.518-3.749c.284-2.061.522-44.813.529-95.004.007-50.19.293-91.693.635-92.23.343-.535 3.899-2.869 7.902-5.185 8.155-4.717 38.272-21.95 51.923-29.71 14.467-8.222 24.137-13.877 27.487-16.072l3.136-2.054-1.918-1.52c-2.011-1.592-12.303-7.682-20.588-12.182-6.608-3.59-20.733-11.732-22.706-13.09-2.134-1.467-5.166-1.288-8.139.485-1.339.799-8.827 5.079-16.64 9.511Zm182.046 49.024c10.621 6.196 13.624 8.548 19.805 15.512 5.815 6.55 10.655 15.445 13.025 23.933 1.612 5.77 1.681 7.761 1.645 47.452-.042 45.767-.132 46.788-5.13 57.666-4.112 8.95-10.938 17.664-18.157 23.174-1.527 1.166-6.202 4.09-10.39 6.499a7772.16 7772.16 0 0 0-24.044 13.93c-37.517 21.814-39.916 22.85-54.519 23.52-13.915.64-23.05-2.042-39.652-11.643-3.526-2.04-6.862-4.264-7.413-4.943-.783-.966-1.002-15.607-1.002-67.115 0-56.723.163-66.043 1.172-67.057.644-.648 4.161-2.895 7.814-4.992 3.653-2.097 10.79-6.252 15.86-9.233 14.49-8.522 27.694-16.226 37.267-21.747a2327.223 2327.223 0 0 0 20.036-11.739c22.018-13.059 31.286-18.106 33.265-18.115 1.104-.004 5.793 2.2 10.418 4.898" fill="#31a4d4"/></svg>