<svg viewBox="0 0 1024 1024" version="1.1" xmlns="http://www.w3.org/2000/svg" xmlns:xlink="http://www.w3.org/1999/xlink">
  <style>
    path { fill: #31A4D4 }
    @media (prefers-color-scheme: dark) {
      path { fill: white; }
    }    
  </style>
  <path d="M495.032705,1.97592956 C463.24119,4.64351644 437.152944,15.637611 381.384191,49.870534 C364.593694,60.175003 364.442907,59.343461 385.269155,71.3065792 C419.475469,90.9575809 483.681602,128.157446 491.114479,132.632251 C497.230194,136.31321 500.747062,137.131448 504.57659,135.756631 C512.153601,133.035826 645.830083,54.932962 645.761369,53.265443 C645.65047,50.5113757 589.043523,18.7242951 573.450446,12.6595818 C559.451713,7.21353573 523.056781,-0.81361683 516.362313,0.0667090167 C514.998584,0.246322099 505.399263,1.10669094 495.032705,1.97592956 M699.037687,113.103209 C686.23194,120.524999 672.262033,128.623109 667.993451,131.099996 C663.724868,133.576883 652.748513,139.814557 643.601551,144.961248 C622.469296,156.853408 524.263071,213.6821 445.140182,259.807183 C430.505042,268.339913 395.081351,288.762585 366.420869,305.193856 C337.760386,321.625127 310.319499,337.528646 305.441119,340.535502 C300.562739,343.542358 286.344478,351.939824 273.842521,359.19974 L251.113705,372.397976 L251.011702,383.975258 C250.956266,390.343762 250.920787,508.810785 250.931292,647.234818 C250.958484,896.684127 250.998398,898.948139 255.417766,902.553705 C257.872479,904.556059 287.395547,922.018442 321.027543,941.359001 C354.661755,960.701778 385.867865,978.747349 390.375932,981.461502 C414.142512,995.76846 449.184803,1013.22419 462.879746,1017.57482 C482.583966,1023.83688 520.25393,1025.93681 542.472733,1022.01414 C571.392657,1016.90959 579.448636,1012.92484 684.624292,951.678992 C698.039837,943.866932 710.512967,936.529405 712.34236,935.374116 C714.171752,934.218827 731.13521,924.501981 750.038933,913.780632 C906.308966,825.149337 924.587369,813.155174 944.382505,786.264213 C956.700414,769.533587 967.874122,746.16393 973.220383,725.954132 C977.072086,711.39882 977.327092,698.071973 977.327092,511.970645 C977.327092,287.294637 978.500121,303.131632 958.922295,263.678842 C950.425044,246.553511 945.018912,239.160548 929.652015,223.658387 C913.710799,207.577472 905.67256,201.705677 877.542047,185.595936 C859.248121,175.118506 835.299711,161.299386 824.323356,154.886533 C761.452124,118.158984 728.141659,99.530225 725.409766,99.5678645 C723.711203,99.5923135 711.843435,105.683636 699.037687,113.103209 M231.156696,136.676871 C146.017877,185.274406 118.627991,201.687937 106.440911,211.418088 C82.4437161,230.574599 59.9344273,266.477259 50.0778822,301.313327 C46.2572237,314.815352 46,328.193201 46,513.079368 L46,710.432014 L51.1311688,728.171577 C58.9498815,755.195585 72.3277299,778.625114 91.4576319,798.794998 C109.549769,817.869463 122.24021,827.231518 151.579231,843.13282 L170.678088,853.486072 L172.090601,843.183821 C172.866707,837.518248 173.518636,720.013595 173.536375,582.064096 C173.556332,444.116814 174.336873,330.044768 175.272635,328.570166 C176.208397,327.097783 185.923026,320.68493 196.859467,314.318644 C219.135924,301.353241 301.409803,253.988606 338.7028,232.661215 C378.222113,210.061011 404.640758,194.518936 413.792156,188.485267 L422.358148,182.839651 L417.118324,178.664201 C411.623494,174.286964 383.508503,157.547468 360.877255,145.180775 C342.825031,135.31536 304.237046,112.934683 298.848653,109.20494 C293.018989,105.169189 284.734613,105.663679 276.614328,110.535407 C272.955543,112.730678 252.499608,124.494226 231.156696,136.676871 Z M734.527902,272.681671 C763.913489,289.727174 772.22004,296.19768 789.323196,315.356409 C805.410763,333.379805 818.801916,357.849316 825.36112,381.201234 C829.820403,397.075926 830.011103,402.555234 829.911318,511.753336 C829.796011,637.666541 829.54544,640.476044 815.71745,670.402688 C804.341955,695.025203 785.453754,719.000223 765.481223,734.160897 C761.256989,737.369541 748.320412,745.414433 736.73426,752.04016 C725.148107,758.66367 695.212594,775.910961 670.210896,790.366487 C566.410057,850.379431 559.771025,853.228849 519.369169,855.073763 C480.867664,856.834415 455.59322,849.454757 409.661055,823.040546 C399.904295,817.430409 390.675287,811.31026 389.149685,809.440953 C386.98324,806.784454 386.377878,766.502339 386.377878,624.79427 C386.377878,468.737111 386.828019,443.096789 389.619783,440.305025 C391.402609,438.522199 401.13276,432.342179 411.239876,426.572386 C421.346993,420.802593 441.093344,409.371661 455.118687,401.171548 C495.212318,377.72428 531.742515,356.527719 558.229901,341.338217 C571.645446,333.645899 596.591707,319.112761 613.666037,309.043342 C674.583699,273.11629 700.226238,259.230647 705.701111,259.206233 C708.756751,259.19295 721.728807,265.257664 734.527902,272.681671" />
</svg>
