<svg viewBox="0 0 300 88" version="1.1" xmlns="http://www.w3.org/2000/svg" xmlns:xlink="http://www.w3.org/1999/xlink">
    <g id="Page-1" stroke="none" stroke-width="1" fill="none" fill-rule="evenodd">
        <g id="0" fill-rule="nonzero">
            <rect id="Rectangle" fill="#3A3B3C" x="0" y="0" width="300" height="88" rx="10"></rect>
            <g id="1" transform="translate(28.000000, 14.000000)" fill="#FFFFFF" fill-opacity="0.87">
                <path d="M5.52596789,56.973465 L2.64400378,56.973465 C1.18376081,56.973465 0,55.7876136 0,54.3247917 L0,6.64867325 C0,5.18585141 1.18376081,4 2.64400378,4 L12.7705382,4 C17.6090652,4 20.7025496,4.95352237 23.2407932,7.1784079 C26.4135977,9.82708115 28,13.9325247 28,19.1768977 C28,25.0172222 26.1756374,29.2815862 22.5269122,31.9037727 C21.5602512,32.5631887 21.1408762,33.7804467 21.4957507,34.8967735 L27.5108593,53.5301898 C27.7732738,54.3364072 27.6344798,55.2197514 27.1375274,55.9062327 C26.6405751,56.592714 25.845553,56.9993272 24.9990557,56.999976 L21.9981114,56.999976 C20.8495158,57.004854 19.8291453,56.2663209 19.4730878,55.1723672 L13.6827195,37.0421988 C13.3313176,35.9430063 12.3098425,35.1983163 11.1576959,35.2013709 L10.8139754,35.2013709 C9.35373248,35.2013709 8.16997167,36.3872223 8.16997167,37.8500441 L8.16997167,54.3247917 C8.16997167,55.7876136 6.98621086,56.973465 5.52596789,56.973465 M11.184136,27.6526521 C14.674221,27.6526521 16.2606232,27.2553511 17.529745,25.983988 C18.7988669,24.7126248 19.5127479,22.4877393 19.5127479,19.547712 C19.5127479,16.6076847 18.878187,14.5417195 17.529745,13.1908962 C16.1813031,11.8400728 14.674221,11.4692586 11.184136,11.4692586 L10.8139754,11.4692586 C9.35373248,11.4692586 8.16997167,12.65511 8.16997167,14.1179318 L8.16997167,24.9510054 C8.16997167,26.4138272 9.35373248,27.5996787 10.8139754,27.5996787 L11.184136,27.6526521 Z" id="Shape"></path>
                <path d="M56.3509934,11.473 L45.8344371,11.473 C44.3714311,11.473 43.1854305,12.6594454 43.1854305,14.123 L43.1854305,22.868 C43.1854305,24.3315546 44.3714311,25.518 45.8344371,25.518 L52.218543,25.518 C53.681549,25.518 54.8675497,26.7044454 54.8675497,28.168 L54.8675497,30.4205 C54.8675497,31.8840546 53.681549,33.0705 52.218543,33.0705 L45.8344371,33.0705 C44.3714311,33.0705 43.1854305,34.2569454 43.1854305,35.7205 L43.1854305,46.7975 C43.1854305,48.2610546 44.3714311,49.4475 45.8344371,49.4475 L56.3509934,49.4475 C57.8139993,49.4475 59,50.6339454 59,52.0975 L59,54.35 C59,55.8135546 57.8139993,57 56.3509934,57 L37.6490066,57 C36.1860007,57 35,55.8135546 35,54.35 L35,6.65 C35,5.18644541 36.1860007,4 37.6490066,4 L56.3509934,4 C57.8139993,4 59,5.18644541 59,6.65 L59,8.823 C59,10.2865546 57.8139993,11.473 56.3509934,11.473" id="Path"></path>
                <path d="M113.914649,61 L77.0985375,61 C72.0816998,60.9927716 68.0145153,56.9376019 68,51.9283402 L68,9.07165983 C68.0145153,4.06239815 72.0816998,0.00722835659 77.0985375,0 L113.914649,0 C118.926338,0.0144629125 122.985515,4.06752343 123,9.07165983 L123,51.9283402 C122.985515,56.9324766 118.926338,60.9855371 113.914649,61 M90.3243826,17.9589899 C90.1185882,17.2422487 89.4623959,16.7481608 88.7156557,16.7476274 L83.8235435,16.7476274 C83.3748212,16.7441377 82.9434471,16.920558 82.6261426,17.2373844 C82.3088381,17.5542107 82.1321515,17.9849347 82.1356465,18.4329808 L82.1356465,42.5801856 C82.1356465,43.025954 82.3139307,43.4532756 82.6308478,43.7672429 C82.9477649,44.0812102 83.3771162,44.2558303 83.8235435,44.2523722 L86.4608008,44.2523722 C87.385689,44.2523722 88.1354591,43.5036801 88.1354591,42.5801856 L88.1354591,37.7744442 C88.0760408,36.9187869 88.6746494,36.1569939 89.5211265,36.0110354 C90.3676035,35.8650769 91.1874181,36.3822905 91.4188444,37.2082884 L93.2121793,43.067343 C93.4261834,43.7689933 94.073152,44.2494845 94.80772,44.2523722 L96.284584,44.2523722 C97.019152,44.2494845 97.6661206,43.7689933 97.8801247,43.067343 L99.647087,37.260954 C99.8998097,36.4631805 100.704195,35.9747388 101.52987,36.1176844 C102.355545,36.26063 102.948294,36.9909517 102.917286,37.8271099 L102.917286,42.5801856 C102.917286,43.5036801 103.667056,44.2523722 104.591944,44.2523722 L107.229202,44.2523722 C108.143774,44.2379375 108.877487,43.4934935 108.877487,42.5801856 L108.877487,18.4329808 C108.877487,17.5094863 108.127717,16.7608461 107.202829,16.7608461 L102.284344,16.7608461 C101.537604,16.7613272 100.881412,17.2554151 100.675617,17.9721563 L97.1153201,30.2827542 C96.9081431,30.9980103 96.2522868,31.4903177 95.5065931,31.4903177 C94.7608995,31.4903177 94.1050432,30.9980103 93.8978662,30.2827542 L90.3243826,17.932657" id="Shape"></path>
                <path d="M174.925659,61 L138.100719,61 C133.082679,60.9927716 129.014519,56.9376019 129,51.9283402 L129,9.07165983 C129.014519,4.06239815 133.082679,0.00722835659 138.100719,0 L174.925659,0 C179.933399,0.0216827026 183.985553,4.07263976 184,9.07165983 L184,51.9283402 C183.985553,56.9273602 179.933399,60.9783173 174.925659,61 M159.098321,39.1042521 C160.005969,39.1052058 160.80282,39.7071745 161.05036,40.5788906 L161.670264,42.7776818 C161.908626,43.6500175 162.703328,44.2544468 163.609113,44.2523203 L165.693046,44.2523203 C166.336929,44.249792 166.940949,43.9406861 167.31889,43.420298 C167.696832,42.8999098 167.803316,42.2307207 167.605516,41.6190373 L159.797362,18.1564861 C159.499032,17.3610715 158.735705,16.8355581 157.884892,16.8398186 L155.247002,16.8398186 C154.372075,16.8457737 153.597919,17.4068503 153.321343,18.2354846 L145.565947,41.6848694 C145.379484,42.2981361 145.492444,42.9632217 145.870983,43.4808622 C146.249521,43.9985027 146.849665,44.308565 147.491607,44.3181524 L149.535971,44.3181524 C150.443195,44.2827861 151.215061,43.6469741 151.422062,42.7645154 L152.028777,40.592057 C152.271409,39.7151206 153.069457,39.1068638 153.980815,39.1042521 L159.098321,39.1042521 M156.539568,33.9956838 C155.497227,33.9965155 154.625765,33.2047547 154.528732,32.1687519 C154.431698,31.1327492 155.141027,30.1934462 156.165457,30.0013777 C157.189886,29.8093091 158.192284,30.4276835 158.478417,31.4282322 C158.64641,32.0352855 158.52229,32.6857996 158.142516,33.1887025 C157.762741,33.6916053 157.170433,33.989794 156.539568,33.9956838 L156.539568,33.9956838" id="Shape"></path>
                <path d="M234.91247,61 L198.08753,61 C193.074639,60.9855371 189.014488,56.9324766 189,51.9283402 L189,9.07165983 C189.014488,4.06752343 193.074639,0.0144629125 198.08753,0 L234.91247,0 C239.925361,0.0144629125 243.985512,4.06752343 244,9.07165983 L244,51.9283402 C243.985512,56.9324766 239.925361,60.9855371 234.91247,61 M212.714628,37.0897906 C212.714628,35.889975 213.688973,34.9173322 214.890887,34.9173322 L216.631894,34.9173322 C217.977035,34.9300012 219.314701,34.7163485 220.588729,34.2853443 C221.713231,33.9046223 222.746245,33.2948633 223.622302,32.4947118 C224.453617,31.7152873 225.102165,30.762147 225.521583,29.7034319 C225.983064,28.5526779 226.211683,27.3220844 226.194245,26.0826678 C226.207668,24.8093831 225.979426,23.5450776 225.521583,22.3565724 C225.107903,21.2449151 224.460252,20.2347277 223.622302,19.3941291 C222.754911,18.5447443 221.722531,17.8815902 220.588729,17.4454997 C219.323652,16.9732228 217.982496,16.7366992 216.631894,16.7476797 L208.889688,16.7476797 C207.687774,16.7476797 206.713429,17.7203225 206.713429,18.9201381 L206.713429,42.1325275 C206.742074,43.3117267 207.708079,44.2524887 208.889688,44.2524887 L210.52518,44.2524887 C211.714776,44.2670004 212.692957,43.3199395 212.714628,42.1325275 L212.714628,37.0897906 M212.714628,24.0418735 C212.714628,22.8420578 213.688973,21.8694151 214.890887,21.8694151 L216.631894,21.8694151 C217.189446,21.8534169 217.742284,21.9755526 218.241007,22.2249083 C218.680322,22.4429233 219.060399,22.7636181 219.348921,23.1597237 C219.644774,23.5544949 219.863978,24.0010676 219.995204,24.4763652 C220.129118,25.0057338 220.19559,25.5498535 220.193046,26.0958342 C220.197333,26.5942495 220.130722,27.0907487 219.995204,27.5704727 C219.865809,27.9986132 219.645361,28.3938278 219.348921,28.7291172 C219.044831,29.0701753 218.665569,29.3360965 218.241007,29.5059357 C217.725339,29.6914277 217.1799,29.7806878 216.631894,29.769264 L214.890887,29.769264 C213.706412,29.7766713 212.736273,28.8317033 212.714628,27.6494712 L212.714628,24.0418735 Z" id="Shape"></path>
            </g>
        </g>
    </g>
</svg>
